<mxfile host="app.diagrams.net" modified="2023-08-31T14:36:23.437Z" agent="Mozilla/5.0 (Windows NT 10.0; Win64; x64; rv:109.0) Gecko/20100101 Firefox/116.0" version="21.6.9" etag="2VcQrhXQTZW1jXPI32h7" type="github">
  <diagram name="PÃ¡gina-1" id="uWZpD2EmkhTX4DxQ5mVQ">
    <mxGraphModel>
      <root>
        <mxCell id="0" />
        <mxCell id="1" parent="0" />
      </root>
    </mxGraphModel>
  </diagram>
</mxfile>
